# xmcd
#
# Track frame offsets:
#	150
#	14450
#	30590
#	46415
#	55787
#	65832
#	79880
#	90522
#	101852
#	112107
#	128527
#	139710
#	151645
#	164750
#	180360
#	193710
#
# Disc length: 2707 seconds
#
# Revision: 0
# Processed by: cddbd v1.5.2PL0 Copyright (c) Steve Scherf et al.
# Submitted via: audiograbber 1.83.01
#
DISCID=d30a9110
DTITLE=The Country Gentleman - Country Songs, Old And New
DYEAR=1990
DGENRE=Country
TTITLE0=Roving Rambler
TTITLE1=The Little Sparrow
TTITLE2=Drifting Too Far
TTITLE3=Weeping Willow
TTITLE4=Tomorrow's My Wedding Day
TTITLE5=Story Of Charlie Lawson
TTITLE6=Turkey Knob
TTITLE7=Paul And Silas
TTITLE8=Ellen Smith
TTITLE9=The Long Black Veil
TTITLE10=Honky Tonk Rag
TTITLE11=Jesse James
TTITLE12=Have Thine Own Way
TTITLE13=A Good Woman's Love
TTITLE14=The Double Eagle
TTITLE15=Darling Alalee
EXTD=
EXTT0=
EXTT1=
EXTT2=
EXTT3=
EXTT4=
EXTT5=
EXTT6=
EXTT7=
EXTT8=
EXTT9=
EXTT10=
EXTT11=
EXTT12=
EXTT13=
EXTT14=
EXTT15=
PLAYORDER=
